<svg xmlns="http://www.w3.org/2000/svg" width="14.131" height="14.166" viewBox="0 0 14.131 14.166">
    <path fill="#999" d="M-8271.455 131a.548.548 0 0 1 0-.775l6.164-6.145-6.164-6.145a.551.551 0 0 1 0-.777.549.549 0 0 1 .775 0l6.554 6.534a.554.554 0 0 1 .16.391.545.545 0 0 1-.16.388l-6.554 6.534a.55.55 0 0 1-.387.16.543.543 0 0 1-.388-.165zm-6.481 0a.547.547 0 0 1 0-.775l6.162-6.145-6.162-6.145a.55.55 0 0 1 0-.777.55.55 0 0 1 .776 0l6.553 6.534a.552.552 0 0 1 .162.391.551.551 0 0 1-.162.388l-6.553 6.534a.548.548 0 0 1-.389.16.547.547 0 0 1-.388-.165z" transform="translate(8278.097 -116.999)"/>
</svg>
