<svg xmlns="http://www.w3.org/2000/svg" width="14.133" height="14.166" viewBox="0 0 14.133 14.166">
    <path fill="#999" d="M-8264.9 131.007l-6.555-6.536a.553.553 0 0 1-.16-.388.557.557 0 0 1 .16-.389l6.555-6.534a.548.548 0 0 1 .389-.16.551.551 0 0 1 .389.162.547.547 0 0 1 0 .775l-6.161 6.145 6.161 6.145a.55.55 0 0 1 0 .777.554.554 0 0 1-.391.162.544.544 0 0 1-.387-.159zm-6.482 0l-6.552-6.536a.543.543 0 0 1-.162-.388.546.546 0 0 1 .162-.389l6.552-6.534a.551.551 0 0 1 .389-.16.546.546 0 0 1 .389.162.548.548 0 0 1 0 .775l-6.162 6.145 6.162 6.145a.551.551 0 0 1 0 .777.551.551 0 0 1-.391.162.547.547 0 0 1-.388-.159z" transform="translate(8278.097 -117)"/>
</svg>
